<svg version="1.2" xmlns="http://www.w3.org/2000/svg" viewBox="0 0 718 151" width="718" height="151">
	<style>
		.s0 { fill: #000000 } 
		.s1 { opacity: .99;fill: #ffffff } 
		.s2 { fill: #ffffff } 
	</style>
	<g id="Layer 1">
		<path id="Rounded_Rectangle_1" fill-rule="evenodd" class="s0" d="m9.76-0.28h132.37c1.31 0 2.61 0.26 3.83 0.76 1.21 0.5 2.31 1.24 3.24 2.17 0.93 0.93 1.67 2.03 2.17 3.24 0.5 1.21 0.76 2.51 0.76 3.83v131.56c0 1.32-0.26 2.62-0.76 3.83-0.5 1.21-1.24 2.31-2.17 3.24-0.93 0.93-2.03 1.67-3.24 2.17-1.22 0.5-2.52 0.76-3.83 0.76h-132.38c-1.31 0-2.61-0.26-3.82-0.76-1.22-0.5-2.32-1.24-3.25-2.17-0.92-0.93-1.66-2.03-2.16-3.24-0.51-1.21-0.77-2.51-0.77-3.83v-131.56c0-1.32 0.26-2.62 0.77-3.83 0.5-1.21 1.24-2.31 2.16-3.24 0.93-0.93 2.03-1.67 3.25-2.17 1.21-0.5 2.51-0.76 3.82-0.76z"/>
		<path id="SERVERS" fill-rule="evenodd" class="s0" d="m183.67 46.86h77.01v59.67h-77.01zm64.82 9.56q0.09-0.28 0.11-0.57 0.02-0.3-0.03-0.59-0.05-0.3-0.16-0.57-0.12-0.27-0.3-0.51-0.18-0.24-0.41-0.43-0.23-0.19-0.51-0.31-0.27-0.13-0.56-0.18-0.3-0.06-0.6-0.04h-28.33q-0.12 0-0.24 0.01-0.12 0-0.24 0.01-0.12 0.01-0.24 0.03-0.12 0.01-0.24 0.03-0.05 0-0.11 0.01-0.06 0-0.12 0.01-0.05 0-0.11 0.01-0.06 0.01-0.11 0.02-0.38 0.08-0.84 0.2-0.05 0.02-0.1 0.04-0.05 0.02-0.1 0.04-0.05 0.01-0.11 0.03-0.05 0.01-0.1 0.02-0.17 0.04-0.42 0.12-0.42 0.17-0.79 0.34-0.05 0.03-0.1 0.06-0.04 0.03-0.09 0.06-0.05 0.03-0.09 0.06-0.05 0.03-0.09 0.07-0.11 0.05-0.21 0.1-0.1 0.06-0.2 0.11-0.09 0.06-0.19 0.12-0.1 0.06-0.19 0.12-0.09 0.08-0.17 0.15-0.09 0.07-0.18 0.14-0.09 0.06-0.18 0.13-0.09 0.06-0.18 0.13-0.05 0.03-0.09 0.06-0.04 0.04-0.08 0.08-0.05 0.03-0.09 0.07-0.04 0.04-0.07 0.08-0.09 0.08-0.34 0.29l-0.33 0.33-0.37 0.37-0.34 0.42q-0.29 0.33-0.62 0.79-0.04 0.05-0.08 0.1-0.04 0.05-0.07 0.11-0.04 0.05-0.08 0.1-0.03 0.05-0.06 0.11l-0.25 0.41q-0.17 0.3-0.5 0.84-0.05 0.1-0.11 0.2-0.05 0.11-0.1 0.21-0.05 0.11-0.1 0.21-0.06 0.1-0.11 0.21l-0.33 0.83q-0.08 0.21-0.17 0.42-0.12 0.41-0.25 0.83l-3.91 14.64q-0.07 0.21-0.12 0.42-0.06 0.21-0.1 0.43-0.04 0.21-0.07 0.43-0.03 0.21-0.04 0.43-0.04 0.41-0.04 0.75 0 0.5 0.04 1.12 0.01 0.05 0.02 0.1 0.01 0.06 0.01 0.11 0.01 0.05 0.01 0.1 0 0.05 0 0.11 0.02 0.08 0.04 0.16 0.02 0.08 0.05 0.16 0.02 0.07 0.05 0.15 0.03 0.08 0.07 0.15 0.03 0.08 0.07 0.15 0.03 0.07 0.07 0.15 0.03 0.07 0.07 0.14 0.04 0.07 0.08 0.14 0.05 0.1 0.11 0.2 0.06 0.1 0.12 0.19 0.06 0.1 0.13 0.19 0.07 0.09 0.14 0.17l0.21 0.21q0.02 0.03 0.05 0.07 0.02 0.03 0.05 0.06 0.02 0.03 0.05 0.06 0.03 0.03 0.06 0.06 0.05 0.05 0.11 0.1 0.06 0.04 0.13 0.08 0.06 0.04 0.12 0.08 0.07 0.04 0.14 0.07 0.03 0.02 0.07 0.04 0.04 0.02 0.07 0.04 0.04 0.02 0.08 0.05 0.03 0.02 0.07 0.04 0.03 0.03 0.06 0.05 0.04 0.02 0.08 0.04 0.03 0.03 0.07 0.04 0.04 0.02 0.08 0.04 0.07 0.03 0.15 0.07 0.08 0.03 0.16 0.06 0.07 0.04 0.15 0.06 0.08 0.03 0.16 0.06l0.34 0.08q0.09 0.03 0.18 0.06 0.09 0.02 0.19 0.04 0.09 0.02 0.18 0.04 0.1 0.01 0.19 0.02 0.11 0.03 0.21 0.04 0.1 0.02 0.21 0.03 0.1 0.01 0.21 0.01 0.1 0.01 0.21 0.01 0.09 0.01 0.19 0.02 0.1 0 0.2 0.01 0.1 0 0.2 0.01 0.1 0 0.2 0h15.85q0.04 0 0.08 0 0.05 0.01 0.09 0.01 0.04 0.01 0.08 0.01 0.04 0.01 0.08 0.02 0.03 0 0.06 0.01 0.02 0 0.05 0.01 0.02 0 0.05 0.01 0.03 0 0.05 0.01 0.04 0.01 0.08 0.02 0.04 0.01 0.08 0.03 0.03 0.01 0.07 0.03 0.03 0.02 0.06 0.05 0.09 0.08 0.13 0.12l0.21 0.21q0.02 0.03 0.05 0.06 0.03 0.03 0.05 0.06 0.03 0.03 0.06 0.07 0.02 0.03 0.04 0.06 0.03 0.03 0.06 0.06 0.02 0.03 0.04 0.06 0.02 0.03 0.04 0.06 0.02 0.04 0.03 0.07 0.02 0.04 0.03 0.08 0.02 0.04 0.03 0.08 0.01 0.05 0.02 0.09 0 0.04 0 0.08v0.17q0-0.08-0.62 2.25-0.67 2.5-0.58 2.24-0.02 0.03-0.03 0.06-0.02 0.02-0.03 0.05-0.02 0.03-0.04 0.05-0.01 0.03-0.03 0.05-0.03 0.04-0.06 0.08-0.03 0.04-0.06 0.07-0.03 0.04-0.06 0.07-0.04 0.04-0.07 0.07-0.03 0.05-0.07 0.09-0.04 0.04-0.08 0.08-0.04 0.03-0.09 0.06-0.04 0.04-0.09 0.06l-0.17 0.09q-0.04 0.03-0.07 0.06-0.04 0.03-0.09 0.06-0.04 0.02-0.08 0.04-0.05 0.03-0.09 0.05-0.03 0.01-0.05 0.02-0.03 0.01-0.05 0.02-0.03 0.01-0.06 0.02-0.02 0.01-0.05 0.01-0.06 0.02-0.11 0.04-0.06 0.02-0.12 0.04-0.05 0.01-0.11 0.03-0.06 0.01-0.12 0.02-0.04 0.02-0.09 0.03-0.05 0.02-0.09 0.04-0.05 0.01-0.1 0.03-0.04 0.01-0.09 0.02h-18.93q-0.36 0.01-0.7 0.07-0.35 0.07-0.68 0.19-0.33 0.12-0.63 0.3-0.3 0.17-0.57 0.4-0.29 0.2-0.54 0.45-0.24 0.25-0.45 0.54-0.2 0.29-0.35 0.6-0.15 0.32-0.24 0.66l-0.34 1.37q-0.1 0.29-0.12 0.59-0.03 0.3 0.02 0.6 0.05 0.3 0.17 0.58 0.12 0.28 0.31 0.52 0.18 0.23 0.42 0.41 0.23 0.18 0.51 0.3 0.27 0.12 0.56 0.17 0.29 0.05 0.59 0.03h27.71q0.16 0 0.32 0 0.16-0.01 0.32-0.02 0.16-0.01 0.33-0.02 0.16-0.02 0.32-0.04 0.33-0.04 0.62-0.08 1.12-0.21 1.25-0.25 0.08-0.02 0.16-0.05 0.08-0.02 0.16-0.04 0.07-0.03 0.15-0.06 0.08-0.03 0.15-0.06 0.38-0.17 1.17-0.54 0.22-0.11 0.44-0.24 0.23-0.12 0.44-0.26 0.21-0.13 0.42-0.28 0.21-0.15 0.4-0.3 0.38-0.29 0.75-0.63 0.15-0.12 0.28-0.25 0.14-0.13 0.27-0.26 0.13-0.14 0.25-0.28 0.13-0.14 0.24-0.29 0.05-0.04 0.09-0.09 0.04-0.05 0.08-0.09 0.05-0.05 0.09-0.1 0.04-0.04 0.08-0.09 0.08-0.1 0.17-0.2 0.08-0.1 0.16-0.2 0.08-0.11 0.15-0.22 0.07-0.1 0.14-0.22 0.25-0.37 0.5-0.83 0.08-0.12 0.15-0.24 0.07-0.12 0.14-0.25 0.07-0.12 0.13-0.25 0.06-0.13 0.12-0.26 0.13-0.25 0.29-0.62 0.02-0.05 0.04-0.09 0.02-0.05 0.03-0.1 0.02-0.04 0.03-0.09 0.01-0.05 0.03-0.1 0.02-0.09 0.04-0.18 0.03-0.09 0.06-0.18 0.03-0.09 0.07-0.17 0.04-0.09 0.08-0.17 0.01-0.05 0.02-0.1 0.02-0.05 0.03-0.09 0.02-0.05 0.04-0.1 0.01-0.04 0.03-0.09 0.13-0.37 0.21-0.7l3.83-14.36q0.12-0.5 0.2-1 0.01-0.05 0.02-0.11 0.01-0.06 0.01-0.12 0.01-0.05 0.01-0.11 0.01-0.06 0.01-0.11 0.02-0.11 0.03-0.21 0.02-0.11 0.03-0.21 0.01-0.1 0.01-0.21 0.01-0.1 0.01-0.21v-0.41q0-0.09 0-0.18-0.01-0.1-0.01-0.19-0.01-0.1-0.01-0.19-0.01-0.09-0.02-0.19-0.02-0.08-0.05-0.16-0.02-0.09-0.05-0.17-0.02-0.09-0.05-0.17-0.03-0.08-0.06-0.16 0 0.08-0.12-0.29-0.3-0.75-0.25-0.63-0.03-0.03-0.05-0.07-0.02-0.03-0.04-0.07-0.02-0.04-0.04-0.07-0.02-0.04-0.04-0.08l-0.17-0.25q-0.05-0.08-0.11-0.16-0.05-0.08-0.12-0.15-0.06-0.07-0.13-0.14-0.06-0.07-0.14-0.13l-0.33-0.25q-0.09-0.07-0.17-0.13-0.09-0.07-0.18-0.13-0.09-0.06-0.18-0.12-0.09-0.06-0.18-0.12-0.33-0.21-0.7-0.42-0.21-0.08-0.38-0.16-0.1-0.04-0.2-0.07-0.11-0.03-0.21-0.05-0.1-0.03-0.21-0.05-0.1-0.02-0.21-0.04-0.04-0.02-0.09-0.04-0.05-0.02-0.09-0.04-0.05-0.01-0.1-0.02-0.05-0.02-0.09-0.03-0.46-0.12-0.92-0.2-0.42-0.04-0.91-0.09-0.46-0.04-0.84-0.04h-14.4q-0.04 0-0.08 0-0.05-0.01-0.09-0.02-0.04-0.01-0.08-0.02-0.04-0.02-0.08-0.04-0.03 0-0.06-0.01-0.03 0-0.05-0.01-0.03-0.01-0.05-0.03-0.03-0.01-0.05-0.03-0.04-0.02-0.09-0.05-0.04-0.02-0.08-0.05-0.04-0.02-0.08-0.05-0.04-0.03-0.08-0.06-0.01-0.02-0.03-0.04-0.01-0.02-0.02-0.04-0.01-0.02-0.02-0.04-0.01-0.03-0.01-0.05-0.09-0.08-0.13-0.12-0.01-0.04-0.03-0.08-0.02-0.04-0.04-0.08-0.02-0.03-0.04-0.07-0.03-0.03-0.05-0.06-0.02-0.02-0.02-0.03-0.01-0.02-0.02-0.03 0-0.02-0.01-0.04 0-0.01 0-0.03-0.01-0.03-0.03-0.07-0.01-0.03-0.02-0.07-0.02-0.04-0.02-0.08-0.01-0.03-0.01-0.07v-0.21q0-0.02 0.01-0.03 0-0.02 0-0.03 0.01-0.02 0.02-0.03 0-0.02 0.01-0.03l0.17-0.59q0.16-0.7 0.33-1.29 0.5-2 0.46-1.87 0.01-0.02 0.02-0.03 0-0.02 0.02-0.03 0.01-0.02 0.02-0.03 0.01-0.02 0.02-0.03 0.01-0.03 0.03-0.05 0.01-0.02 0.03-0.04 0.01-0.02 0.03-0.04 0.02-0.02 0.04-0.04 0.02-0.04 0.05-0.07 0.03-0.03 0.06-0.07 0.03-0.03 0.07-0.06 0.03-0.02 0.07-0.05 0.01-0.01 0.02-0.02 0.02-0.01 0.04-0.03 0.01-0.01 0.03-0.01 0.01-0.01 0.03-0.02l0.13-0.13q0.03-0.03 0.06-0.06 0.04-0.03 0.07-0.05 0.04-0.03 0.08-0.05 0.04-0.03 0.08-0.04 0.02-0.02 0.04-0.03 0.01-0.02 0.04-0.03 0.02-0.01 0.04-0.01 0.02-0.01 0.04-0.02 0.03-0.02 0.05-0.04 0.02-0.02 0.05-0.03 0.03-0.02 0.05-0.03 0.03-0.01 0.06-0.02 0.38-0.13 0.29-0.13 0.02 0 0.05 0 0.02 0 0.04-0.01 0.02 0 0.04-0.01 0.02-0.01 0.04-0.02h18.89q0.71-0.03 1.37-0.27 0.67-0.24 1.23-0.67 0.56-0.43 0.97-1.01 0.41-0.58 0.63-1.25zm11.07-9.57h77.01v59.66h-77.01c0 0 0-59.66 0-59.66zm62.7 10.57q0.09-0.28 0.12-0.58 0.03-0.3-0.02-0.59-0.05-0.3-0.17-0.57-0.12-0.28-0.31-0.51-0.18-0.24-0.41-0.43-0.24-0.18-0.51-0.31-0.27-0.12-0.57-0.18-0.29-0.05-0.59-0.04h-29.54q-0.35 0.01-0.7 0.07-0.34 0.07-0.67 0.19-0.33 0.12-0.64 0.3-0.3 0.17-0.57 0.4-0.28 0.21-0.53 0.46-0.25 0.25-0.45 0.53-0.2 0.29-0.35 0.6-0.15 0.32-0.25 0.66l-10.78 40.4q-0.1 0.29-0.12 0.59-0.03 0.3 0.02 0.6 0.05 0.3 0.17 0.58 0.12 0.28 0.31 0.52 0.18 0.23 0.42 0.41 0.23 0.18 0.51 0.3 0.27 0.12 0.56 0.17 0.29 0.05 0.59 0.03h29.91q0.36 0 0.71-0.06 0.34-0.07 0.68-0.18 0.33-0.12 0.64-0.29 0.31-0.17 0.59-0.38 0.29-0.22 0.53-0.47 0.25-0.26 0.45-0.55 0.2-0.29 0.35-0.61 0.16-0.32 0.26-0.66l0.29-1.17q0.1-0.28 0.12-0.58 0.03-0.29-0.02-0.59-0.05-0.29-0.17-0.57-0.12-0.27-0.31-0.5-0.18-0.24-0.41-0.43-0.24-0.19-0.51-0.31-0.27-0.13-0.56-0.18-0.3-0.06-0.6-0.04h-13.44q-0.3 0.02-0.59-0.04-0.29-0.05-0.57-0.18-0.27-0.12-0.5-0.31-0.24-0.19-0.42-0.43-0.18-0.23-0.3-0.51-0.13-0.27-0.18-0.56-0.04-0.3-0.02-0.6 0.03-0.29 0.13-0.57l1.66-6.37q0.1-0.34 0.26-0.65 0.15-0.31 0.35-0.6 0.21-0.29 0.45-0.54 0.24-0.25 0.52-0.46 0.28-0.21 0.59-0.38 0.32-0.17 0.65-0.29 0.33-0.12 0.68-0.18 0.35-0.06 0.7-0.06h12.45q0.7-0.03 1.37-0.28 0.66-0.24 1.23-0.67 0.56-0.42 0.97-1 0.41-0.58 0.63-1.25l0.33-1.29q0.21-0.57 0.12-1.17-0.09-0.6-0.46-1.08-0.36-0.48-0.92-0.73-0.55-0.24-1.15-0.19h-12.48q-0.3 0.02-0.6-0.03-0.29-0.06-0.57-0.18-0.27-0.13-0.5-0.32-0.23-0.18-0.41-0.42-0.19-0.24-0.31-0.51-0.12-0.27-0.17-0.57-0.05-0.29-0.03-0.59 0.03-0.3 0.13-0.58l1.29-4.87q0.09-0.34 0.24-0.66 0.15-0.32 0.35-0.61 0.2-0.29 0.45-0.53 0.25-0.25 0.54-0.45 0.27-0.23 0.57-0.4 0.31-0.18 0.64-0.3 0.33-0.12 0.67-0.19 0.35-0.06 0.7-0.07h12.98q0.36 0 0.7-0.06 0.35-0.06 0.69-0.18 0.33-0.12 0.64-0.29 0.31-0.16 0.59-0.38 0.29-0.21 0.53-0.47 0.25-0.26 0.45-0.55 0.2-0.29 0.35-0.61 0.15-0.32 0.25-0.66zm13.48-10.57h77.02v59.67h-77.02zm65.95 14.23q0.04-0.22 0.07-0.43 0.03-0.21 0.06-0.42 0.02-0.22 0.04-0.43 0.02-0.22 0.04-0.43 0-0.46-0.04-1-0.05-0.25-0.09-0.5-0.01-0.11-0.03-0.22-0.01-0.11-0.04-0.22-0.03-0.11-0.06-0.22-0.03-0.11-0.08-0.21-0.01-0.06-0.02-0.11-0.01-0.05-0.03-0.1-0.01-0.06-0.03-0.11-0.02-0.05-0.04-0.1-0.01-0.05-0.02-0.1-0.02-0.04-0.03-0.09-0.02-0.05-0.03-0.09-0.02-0.05-0.04-0.09-0.07-0.14-0.14-0.26-0.08-0.13-0.16-0.25-0.08-0.12-0.18-0.23-0.09-0.12-0.19-0.22-0.07-0.07-0.15-0.14-0.08-0.07-0.15-0.14-0.08-0.07-0.16-0.13-0.08-0.07-0.16-0.13-0.17-0.13-0.35-0.24-0.18-0.12-0.36-0.22-0.18-0.11-0.37-0.2-0.19-0.09-0.38-0.17-0.24-0.08-0.47-0.15-0.24-0.06-0.48-0.12-0.24-0.06-0.48-0.11-0.24-0.04-0.48-0.08-0.29-0.06-0.58-0.1-0.29-0.04-0.59-0.06-0.29-0.03-0.58-0.04-0.29-0.01-0.58-0.01h-31.96q-0.35 0-0.7 0.07-0.34 0.06-0.67 0.18-0.33 0.13-0.63 0.3-0.31 0.18-0.58 0.41-0.28 0.2-0.53 0.45-0.24 0.25-0.45 0.54-0.2 0.28-0.35 0.6-0.15 0.32-0.25 0.65l-10.77 40.36q-0.1 0.28-0.13 0.58-0.03 0.3 0.02 0.6 0.05 0.29 0.17 0.56 0.12 0.28 0.31 0.51 0.18 0.24 0.41 0.43 0.24 0.18 0.51 0.31 0.27 0.12 0.57 0.18 0.29 0.06 0.59 0.04h9.74q0.35-0.01 0.69-0.07 0.35-0.07 0.68-0.19 0.33-0.12 0.63-0.3 0.31-0.17 0.58-0.4 0.28-0.21 0.53-0.45 0.24-0.25 0.44-0.54 0.21-0.29 0.36-0.6 0.15-0.32 0.25-0.66l3.7-13.81q0.08-0.32 0.22-0.63 0.13-0.31 0.3-0.59 0.18-0.29 0.39-0.54 0.21-0.26 0.46-0.49 0.21-0.21 0.45-0.38 0.25-0.18 0.52-0.3 0.27-0.12 0.56-0.19 0.29-0.07 0.59-0.08 0.28 0 0.56 0.07 0.27 0.07 0.52 0.19 0.26 0.12 0.48 0.3 0.22 0.17 0.4 0.39 0.21 0.25 0.39 0.52 0.17 0.27 0.3 0.57 0.14 0.29 0.22 0.61 0.09 0.31 0.13 0.63l1.58 13.65q0.09 0.67 0.41 1.27 0.32 0.6 0.83 1.06 0.51 0.45 1.14 0.7 0.64 0.24 1.32 0.26h11.52q0.62 0.02 1.19-0.23 0.57-0.25 0.97-0.73 0.39-0.47 0.54-1.08 0.14-0.6 0-1.21l-2.66-13.77q-0.63-3.24-0.13-3.29h0.46q0.06-0.01 0.12-0.01 0.05-0.01 0.11-0.02 0.06 0 0.11 0 0.06-0.01 0.12-0.01 0.06 0 0.11 0 0.06-0.01 0.12-0.01 0.06-0.01 0.11-0.01 0.06-0.01 0.12-0.02 0.05-0.01 0.1-0.02 0.05 0 0.1-0.01 0.06 0 0.11-0.01 0.05 0 0.1 0 0.21-0.04 0.38-0.09 0.21-0.04 0.37-0.08 0.09-0.02 0.18-0.05 0.09-0.03 0.18-0.06 0.09-0.03 0.17-0.07 0.09-0.03 0.18-0.07 0.04-0.01 0.08-0.02 0.05-0.02 0.09-0.03 0.04-0.02 0.08-0.03 0.04-0.02 0.08-0.04 0.38-0.17 0.63-0.29 0.07-0.04 0.14-0.08 0.07-0.04 0.13-0.08 0.07-0.04 0.14-0.09 0.06-0.04 0.13-0.09 0.25-0.2 0.46-0.37l0.58-0.58q0.07-0.07 0.14-0.15 0.06-0.07 0.13-0.15 0.06-0.08 0.12-0.16 0.05-0.08 0.11-0.17 0.05-0.07 0.11-0.14 0.05-0.07 0.1-0.14 0.06-0.08 0.11-0.15 0.05-0.07 0.09-0.15 0.09-0.17 0.17-0.37 0.05-0.08 0.09-0.17 0.04-0.08 0.08-0.16 0.05-0.09 0.09-0.17 0.03-0.08 0.07-0.17 0.08-0.21 0.17-0.37 0.04-0.1 0.07-0.19 0.03-0.09 0.07-0.18 0.03-0.1 0.05-0.19 0.03-0.1 0.06-0.19 0.01-0.08 0.03-0.16 0.01-0.08 0.03-0.16 0.02-0.08 0.05-0.15 0.02-0.08 0.05-0.16 0.05-0.2 0.09-0.37 0.21-0.67 1-3.58l1.66-6.41q0.07-0.24 0.14-0.49 0.06-0.25 0.12-0.5 0.05-0.25 0.1-0.5 0.06-0.25 0.1-0.51 0 0 0.01 0.01zm-16.77 0.33q0.01 0.01 0.03 0.03 0.01 0.01 0.02 0.03 0.01 0.01 0.02 0.03 0.01 0.02 0.02 0.03 0.01 0.03 0.03 0.06 0.01 0.03 0.03 0.06 0.01 0.03 0.01 0.07 0.01 0.03 0.01 0.06 0 0.05-0.01 0.1 0 0.04-0.01 0.09 0 0.05-0.01 0.1 0 0.04-0.01 0.09 0 0.05-0.01 0.1 0 0.06-0.01 0.11-0.02 0.05-0.03 0.1-0.02 0.05-0.04 0.1l-1.91 7.11q-0.01 0.08-0.02 0.15-0.01 0.08-0.03 0.15-0.01 0.07-0.03 0.14-0.02 0.08-0.04 0.15-0.03 0.04-0.06 0.1-0.03 0.05-0.05 0.1-0.02 0.05-0.03 0.1-0.02 0.06-0.03 0.11-0.08 0.17-0.21 0.38-0.02 0.03-0.04 0.07-0.02 0.03-0.05 0.06-0.02 0.04-0.05 0.06-0.03 0.03-0.07 0.06-0.03 0.04-0.07 0.09-0.04 0.04-0.08 0.08-0.05 0.05-0.09 0.08-0.04 0.04-0.09 0.08-0.02 0.01-0.05 0.03-0.02 0.01-0.04 0.03-0.02 0.01-0.04 0.03-0.02 0.02-0.04 0.03-0.04 0.03-0.08 0.05-0.04 0.03-0.08 0.05-0.04 0.02-0.08 0.04-0.05 0.01-0.09 0.03h-0.17q-0.06 0.01-0.12 0.02-0.06 0.01-0.13 0.01-0.06 0.01-0.12 0.01-0.06 0-0.13 0h-6.94q-0.3 0.02-0.59-0.03-0.3-0.05-0.57-0.17-0.27-0.12-0.5-0.3-0.24-0.18-0.42-0.41-0.19-0.24-0.31-0.52-0.12-0.28-0.17-0.58-0.05-0.3-0.02-0.6 0.02-0.3 0.12-0.59l1.21-4.62q0.1-0.34 0.25-0.66 0.15-0.32 0.35-0.61 0.2-0.29 0.45-0.55 0.25-0.25 0.53-0.47 0.28-0.21 0.59-0.38 0.31-0.17 0.64-0.29 0.34-0.11 0.69-0.18 0.35-0.06 0.7-0.06h7.07q0.05 0.01 0.09 0.02 0.05 0.01 0.1 0.01 0.05 0.01 0.09 0.01 0.05 0 0.1 0 0.04 0 0.07 0.01 0.04 0.01 0.08 0.02 0.03 0.01 0.07 0.02 0.03 0.02 0.07 0.03 0.02 0.01 0.03 0.02 0.02 0.01 0.03 0.02 0.02 0.01 0.03 0.02 0.02 0.01 0.03 0.03 0.03 0.03 0.06 0.06 0.02 0.03 0.05 0.06 0.03 0.03 0.05 0.06 0.03 0.03 0.05 0.07 0 0 0 0zm26.92-14.56h77.01v59.66h-77.01c0 0 0-59.66 0-59.66zm65.78 10.36q0.16-0.21 0.27-0.45 0.1-0.24 0.13-0.5 0.04-0.25 0-0.51-0.04-0.26-0.15-0.5-0.15-0.22-0.35-0.39-0.2-0.18-0.45-0.29-0.24-0.11-0.5-0.15-0.27-0.04-0.53 0h-1.21q-0.75 0.04-1.47 0.25-0.72 0.21-1.38 0.57-0.66 0.36-1.22 0.86-0.56 0.5-1 1.11l-19.52 31.41q-0.7 1.16-1.29 1-0.58-0.13-0.7-1.5l-2.13-30.41q-0.02-0.34-0.11-0.66-0.09-0.32-0.24-0.62-0.15-0.3-0.36-0.57-0.2-0.26-0.45-0.48-0.24-0.24-0.52-0.42-0.28-0.18-0.59-0.3-0.31-0.12-0.64-0.18-0.33-0.06-0.66-0.06h-10.74q-0.32-0.01-0.64 0.05-0.31 0.06-0.61 0.18-0.29 0.13-0.56 0.31-0.26 0.18-0.48 0.42-0.22 0.22-0.39 0.5-0.17 0.27-0.28 0.57-0.11 0.3-0.15 0.62-0.04 0.32-0.01 0.64l2.79 40.35q0.01 0.33 0.1 0.66 0.08 0.32 0.22 0.62 0.15 0.3 0.35 0.57 0.2 0.26 0.45 0.48 0.24 0.23 0.52 0.41 0.28 0.18 0.59 0.31 0.31 0.12 0.64 0.18 0.33 0.06 0.66 0.06h11.74q0.75-0.03 1.48-0.23 0.72-0.2 1.39-0.56 0.66-0.36 1.22-0.87 0.55-0.51 0.98-1.13zm10.03-10.36h77.01v59.66h-77.01c0 0 0-59.66 0-59.66zm62.7 10.57q0.1-0.28 0.13-0.58 0.02-0.3-0.03-0.59-0.05-0.3-0.17-0.57-0.12-0.27-0.31-0.51-0.18-0.24-0.41-0.42-0.23-0.19-0.51-0.32-0.27-0.12-0.56-0.18-0.3-0.05-0.6-0.04h-29.54q-0.35 0.01-0.69 0.07-0.35 0.07-0.68 0.19-0.33 0.12-0.63 0.3-0.31 0.18-0.57 0.4-0.29 0.21-0.54 0.46-0.24 0.25-0.44 0.53-0.21 0.29-0.36 0.61-0.15 0.31-0.25 0.65l-10.77 40.4q-0.1 0.29-0.13 0.59-0.02 0.3 0.03 0.6 0.05 0.3 0.17 0.58 0.12 0.28 0.3 0.52 0.19 0.23 0.42 0.41 0.24 0.18 0.51 0.3 0.27 0.12 0.56 0.17 0.3 0.05 0.59 0.03h29.92q0.35 0 0.7-0.06 0.35-0.06 0.68-0.18 0.34-0.12 0.65-0.29 0.31-0.17 0.59-0.38 0.28-0.22 0.53-0.47 0.24-0.26 0.44-0.55 0.2-0.29 0.36-0.61 0.15-0.32 0.25-0.66l0.29-1.17q0.1-0.28 0.13-0.58 0.02-0.29-0.03-0.59-0.05-0.29-0.17-0.57-0.12-0.27-0.3-0.5-0.18-0.24-0.42-0.43-0.23-0.19-0.5-0.31-0.28-0.13-0.57-0.18-0.29-0.06-0.59-0.04h-13.44q-0.3 0.02-0.6-0.04-0.29-0.05-0.56-0.18-0.28-0.12-0.51-0.31-0.23-0.19-0.41-0.43-0.19-0.23-0.31-0.5-0.12-0.28-0.17-0.57-0.05-0.3-0.02-0.59 0.02-0.3 0.12-0.58l1.67-6.37q0.1-0.33 0.25-0.65 0.16-0.31 0.36-0.6 0.2-0.29 0.44-0.54 0.25-0.25 0.53-0.46 0.28-0.21 0.59-0.38 0.31-0.17 0.64-0.29 0.34-0.11 0.69-0.18 0.35-0.06 0.7-0.06h12.44q0.71-0.03 1.37-0.27 0.67-0.25 1.23-0.67 0.56-0.43 0.97-1.01 0.41-0.58 0.63-1.25l0.33-1.29q0.21-0.57 0.12-1.17-0.09-0.6-0.45-1.08-0.37-0.48-0.92-0.72-0.56-0.25-1.16-0.19h-12.48q-0.3 0.01-0.59-0.04-0.3-0.06-0.57-0.18-0.27-0.13-0.51-0.31-0.23-0.19-0.41-0.43-0.19-0.23-0.31-0.51-0.12-0.27-0.17-0.57-0.05-0.29-0.02-0.59 0.02-0.3 0.12-0.58l1.29-4.87q0.09-0.34 0.24-0.66 0.15-0.32 0.35-0.61 0.2-0.28 0.45-0.53 0.25-0.25 0.54-0.45 0.27-0.22 0.58-0.4 0.3-0.18 0.63-0.3 0.33-0.12 0.68-0.19 0.34-0.06 0.69-0.06l12.98-0.01q0.36 0 0.71-0.06 0.35-0.06 0.68-0.18 0.33-0.12 0.64-0.28 0.32-0.17 0.6-0.39 0.28-0.21 0.52-0.47 0.25-0.25 0.45-0.55 0.2-0.29 0.35-0.61 0.16-0.32 0.26-0.66zm13.48-10.56h77.01v59.66h-77.01zm65.95 14.23q0.03-0.21 0.07-0.43 0.03-0.21 0.05-0.42 0.03-0.22 0.05-0.43 0.02-0.21 0.03-0.43 0-0.46-0.04-1-0.04-0.25-0.08-0.5-0.01-0.11-0.03-0.22-0.02-0.11-0.04-0.22-0.03-0.11-0.06-0.22-0.04-0.11-0.08-0.21-0.01-0.06-0.02-0.11-0.02-0.05-0.03-0.1-0.02-0.06-0.04-0.11-0.01-0.05-0.03-0.1-0.01-0.05-0.03-0.1-0.01-0.04-0.02-0.09-0.02-0.05-0.04-0.09-0.02-0.05-0.04-0.09-0.06-0.13-0.14-0.26-0.07-0.13-0.15-0.25-0.09-0.12-0.18-0.23-0.09-0.11-0.19-0.22-0.08-0.07-0.15-0.14-0.08-0.07-0.16-0.14-0.07-0.07-0.15-0.13-0.09-0.07-0.17-0.13-0.17-0.13-0.34-0.24-0.18-0.12-0.36-0.22-0.18-0.11-0.37-0.2-0.19-0.09-0.38-0.17-0.24-0.08-0.48-0.15-0.23-0.06-0.47-0.12-0.24-0.06-0.48-0.11-0.24-0.04-0.49-0.08-0.29-0.05-0.58-0.09-0.29-0.04-0.58-0.07-0.29-0.03-0.58-0.04-0.3-0.01-0.59-0.01h-31.96q-0.35 0-0.69 0.07-0.35 0.06-0.68 0.19-0.33 0.12-0.63 0.29-0.31 0.18-0.58 0.41-0.28 0.2-0.53 0.45-0.24 0.25-0.44 0.54-0.21 0.29-0.36 0.6-0.15 0.32-0.25 0.66l-10.77 40.35q-0.1 0.29-0.13 0.58-0.03 0.3 0.02 0.6 0.05 0.29 0.17 0.56 0.13 0.28 0.31 0.51 0.18 0.24 0.42 0.43 0.23 0.19 0.5 0.31 0.27 0.13 0.57 0.18 0.29 0.06 0.59 0.04h9.74q0.35-0.01 0.7-0.07 0.34-0.06 0.67-0.19 0.33-0.12 0.64-0.3 0.3-0.17 0.57-0.4 0.28-0.2 0.53-0.45 0.25-0.25 0.45-0.54 0.2-0.29 0.35-0.6 0.15-0.32 0.25-0.66l3.7-13.81q0.09-0.32 0.22-0.63 0.13-0.3 0.31-0.59 0.17-0.29 0.38-0.54 0.22-0.26 0.46-0.49 0.21-0.21 0.45-0.38 0.25-0.18 0.52-0.3 0.27-0.12 0.56-0.19 0.3-0.07 0.59-0.08 0.29 0 0.56 0.07 0.27 0.07 0.53 0.19 0.25 0.13 0.47 0.3 0.22 0.18 0.4 0.39 0.21 0.25 0.39 0.52 0.18 0.27 0.31 0.57 0.13 0.3 0.22 0.61 0.08 0.31 0.12 0.63l1.58 13.65q0.1 0.67 0.42 1.28 0.32 0.59 0.82 1.05 0.51 0.45 1.15 0.7 0.63 0.24 1.31 0.26h11.53q0.62 0.02 1.19-0.22 0.56-0.26 0.96-0.73 0.4-0.48 0.55-1.09 0.14-0.6 0-1.21l-2.66-13.77q-0.63-3.24-0.13-3.29h0.46q0.06-0.01 0.12-0.01 0.05-0.01 0.11-0.02 0.06 0 0.11 0 0.06-0.01 0.12-0.01 0.06 0 0.11 0 0.06-0.01 0.12-0.01 0.06-0.01 0.11-0.01 0.06-0.01 0.12-0.02 0.05-0.01 0.1-0.02 0.05 0 0.1-0.01 0.06 0 0.11-0.01 0.05 0 0.1 0 0.21-0.04 0.38-0.09 0.21-0.04 0.37-0.08 0.09-0.02 0.18-0.05 0.09-0.03 0.18-0.06 0.09-0.03 0.17-0.07 0.09-0.03 0.18-0.07 0.04-0.01 0.08-0.02 0.05-0.02 0.09-0.03 0.04-0.02 0.08-0.03 0.04-0.02 0.08-0.04 0.38-0.17 0.63-0.29 0.07-0.04 0.14-0.08 0.07-0.04 0.13-0.08 0.07-0.04 0.14-0.09 0.06-0.04 0.13-0.09 0.25-0.2 0.46-0.37l0.58-0.58q0.07-0.07 0.14-0.15 0.06-0.07 0.13-0.15 0.06-0.08 0.12-0.16 0.05-0.08 0.11-0.17 0.05-0.07 0.11-0.14 0.05-0.07 0.1-0.14 0.06-0.07 0.11-0.15 0.05-0.07 0.09-0.15 0.09-0.17 0.17-0.37 0.05-0.08 0.09-0.17 0.04-0.08 0.08-0.16 0.05-0.09 0.09-0.17 0.04-0.08 0.07-0.17 0.08-0.21 0.17-0.37 0.04-0.1 0.07-0.19 0.03-0.09 0.07-0.18 0.03-0.1 0.05-0.19 0.03-0.1 0.06-0.19 0.01-0.08 0.03-0.16 0.01-0.08 0.03-0.16 0.02-0.08 0.05-0.15 0.02-0.08 0.05-0.16 0.05-0.2 0.09-0.37 0.21-0.67 1-3.58l1.66-6.41q0.07-0.24 0.14-0.49 0.06-0.25 0.12-0.5 0.05-0.25 0.1-0.5 0.06-0.25 0.1-0.51 0 0 0.01 0.01zm-16.77 0.33q0.01 0.01 0.02 0.03 0.01 0.01 0.03 0.03 0.01 0.02 0.01 0.03 0.01 0.02 0.02 0.03 0.02 0.03 0.04 0.06 0.01 0.03 0.02 0.06 0.01 0.04 0.02 0.07 0 0.03 0 0.06 0 0.05 0 0.1 0 0.05-0.01 0.09 0 0.05-0.01 0.1-0.01 0.04-0.02 0.09 0 0.05 0 0.11-0.01 0.05-0.02 0.1-0.01 0.05-0.02 0.1-0.02 0.06-0.04 0.1l-1.92 7.12q-0.01 0.07-0.02 0.14-0.01 0.08-0.03 0.15-0.01 0.07-0.03 0.14-0.02 0.08-0.04 0.15-0.03 0.05-0.06 0.1-0.02 0.05-0.04 0.1-0.02 0.05-0.04 0.1-0.02 0.06-0.03 0.11-0.08 0.17-0.21 0.38-0.02 0.04-0.04 0.07-0.02 0.03-0.05 0.07-0.02 0.03-0.05 0.06-0.03 0.02-0.07 0.05-0.03 0.04-0.07 0.09-0.04 0.04-0.08 0.08-0.04 0.05-0.09 0.09-0.04 0.03-0.09 0.07-0.02 0.01-0.04 0.03-0.03 0.01-0.05 0.03-0.02 0.01-0.04 0.03-0.02 0.02-0.03 0.04-0.04 0.02-0.08 0.04-0.05 0.03-0.09 0.05-0.04 0.02-0.08 0.04-0.04 0.02-0.09 0.03h-0.16q-0.07 0.01-0.13 0.02-0.06 0.01-0.12 0.01-0.07 0.01-0.13 0.01-0.06 0-0.12 0h-6.95q-0.3 0.02-0.59-0.03-0.29-0.05-0.56-0.17-0.27-0.12-0.51-0.3-0.24-0.18-0.42-0.41-0.19-0.24-0.31-0.52-0.12-0.28-0.17-0.58-0.05-0.3-0.02-0.6 0.03-0.3 0.12-0.59l1.21-4.62q0.1-0.34 0.25-0.66 0.15-0.32 0.36-0.61 0.2-0.29 0.44-0.55 0.25-0.25 0.53-0.47 0.28-0.21 0.59-0.38 0.31-0.17 0.65-0.29 0.33-0.11 0.68-0.17 0.35-0.07 0.7-0.07h7.08q0.05 0.01 0.09 0.02 0.05 0.01 0.1 0.01 0.04 0.01 0.09 0.01 0.05 0 0.09 0 0.04 0 0.08 0.01 0.04 0.01 0.07 0.02 0.04 0.01 0.08 0.02 0.03 0.02 0.07 0.03 0.01 0.01 0.03 0.02 0.01 0.01 0.03 0.02 0.02 0.01 0.03 0.02 0.02 0.02 0.03 0.03 0.03 0.03 0.05 0.06 0.03 0.03 0.06 0.06 0.02 0.03 0.05 0.06 0.02 0.04 0.05 0.07 0 0 0 0zm26.83-14.56h77.01v59.66h-77.01zm64.82 9.57q0.09-0.28 0.11-0.58 0.02-0.3-0.03-0.59-0.04-0.29-0.16-0.56-0.12-0.28-0.29-0.52-0.18-0.24-0.42-0.42-0.23-0.19-0.5-0.32-0.28-0.12-0.57-0.18-0.29-0.05-0.59-0.03h-28.34q-0.12 0-0.24 0-0.12 0.01-0.24 0.02-0.12 0.01-0.24 0.02-0.12 0.02-0.23 0.04-0.06 0-0.12 0-0.06 0.01-0.11 0.01-0.06 0.01-0.12 0.01-0.06 0.01-0.11 0.02-0.38 0.08-0.83 0.21-0.05 0.02-0.11 0.04-0.05 0.02-0.1 0.03-0.05 0.02-0.1 0.03-0.06 0.01-0.11 0.02-0.17 0.05-0.42 0.13-0.41 0.17-0.79 0.33-0.04 0.03-0.09 0.06-0.05 0.03-0.1 0.06-0.04 0.03-0.09 0.07-0.05 0.03-0.09 0.06-0.1 0.05-0.2 0.11-0.1 0.05-0.2 0.11-0.1 0.06-0.2 0.12-0.1 0.06-0.19 0.12-0.08 0.07-0.17 0.14-0.09 0.07-0.18 0.14-0.08 0.07-0.18 0.13-0.09 0.07-0.18 0.13-0.04 0.03-0.09 0.07-0.04 0.03-0.08 0.07-0.04 0.04-0.08 0.07-0.04 0.04-0.08 0.08-0.08 0.09-0.33 0.29l-0.34 0.34-0.37 0.37-0.33 0.42q-0.3 0.33-0.63 0.79-0.04 0.05-0.08 0.1-0.03 0.05-0.07 0.1-0.04 0.05-0.07 0.11-0.04 0.05-0.07 0.1l-0.25 0.42q-0.17 0.29-0.5 0.83-0.05 0.11-0.1 0.21-0.05 0.1-0.11 0.21-0.05 0.1-0.1 0.21-0.05 0.1-0.11 0.2-0.16 0.42-0.33 0.83-0.08 0.21-0.16 0.42-0.13 0.42-0.25 0.83l-3.91 14.65q-0.07 0.2-0.13 0.42-0.05 0.21-0.1 0.42-0.04 0.21-0.07 0.43-0.02 0.22-0.04 0.43-0.04 0.42-0.04 0.75 0 0.5 0.04 1.13 0.01 0.05 0.02 0.1 0.01 0.05 0.01 0.1 0.01 0.06 0.01 0.11 0 0.05 0 0.1 0.02 0.08 0.04 0.16 0.02 0.08 0.05 0.16 0.03 0.08 0.06 0.15 0.03 0.08 0.06 0.16 0.03 0.07 0.07 0.14 0.03 0.08 0.07 0.15 0.04 0.07 0.07 0.15 0.04 0.07 0.08 0.14 0.06 0.1 0.11 0.2 0.06 0.09 0.12 0.19 0.07 0.09 0.13 0.18 0.07 0.09 0.14 0.18l0.21 0.21q0.02 0.03 0.05 0.06 0.02 0.03 0.05 0.07 0.03 0.03 0.05 0.06 0.03 0.03 0.06 0.06 0.06 0.04 0.12 0.09 0.06 0.05 0.12 0.09 0.06 0.04 0.13 0.08 0.06 0.04 0.13 0.07 0.04 0.02 0.07 0.04 0.04 0.02 0.08 0.04 0.03 0.02 0.07 0.04 0.04 0.02 0.07 0.04 0.03 0.03 0.07 0.06 0.03 0.02 0.07 0.04 0.04 0.02 0.08 0.04 0.03 0.02 0.07 0.03 0.08 0.04 0.15 0.07 0.08 0.04 0.16 0.07 0.08 0.03 0.16 0.06 0.08 0.03 0.16 0.05l0.33 0.08q0.09 0.03 0.18 0.06 0.1 0.03 0.19 0.05 0.09 0.02 0.19 0.03 0.09 0.02 0.19 0.03 0.1 0.02 0.2 0.04 0.11 0.01 0.21 0.02 0.11 0.01 0.21 0.02 0.11 0 0.21 0 0.1 0.01 0.2 0.02 0.1 0.01 0.2 0.01 0.09 0.01 0.19 0.01 0.1 0 0.2 0h15.85q0.05 0.01 0.09 0.01 0.04 0 0.08 0.01 0.04 0 0.08 0.01 0.05 0.01 0.09 0.02 0.02 0 0.05 0 0.03 0 0.05 0.01 0.03 0.01 0.05 0.01 0.03 0.01 0.05 0.02 0.04 0 0.08 0.01 0.04 0.02 0.08 0.03 0.04 0.02 0.07 0.04 0.03 0.02 0.07 0.04 0.08 0.09 0.12 0.13l0.21 0.21q0.03 0.03 0.05 0.06 0.03 0.03 0.06 0.06 0.02 0.03 0.05 0.06 0.02 0.03 0.05 0.07 0.02 0.02 0.05 0.05 0.02 0.03 0.04 0.06 0.02 0.03 0.04 0.07 0.02 0.03 0.03 0.07 0.02 0.04 0.04 0.08 0.01 0.04 0.02 0.08 0.01 0.04 0.02 0.08 0 0.05 0.01 0.09v0.17q0-0.09-0.63 2.24-0.66 2.5-0.58 2.25-0.02 0.03-0.03 0.05-0.01 0.03-0.03 0.06-0.02 0.02-0.03 0.05-0.02 0.02-0.04 0.05-0.02 0.04-0.05 0.07-0.03 0.04-0.07 0.08-0.03 0.03-0.06 0.07-0.03 0.04-0.07 0.07-0.03 0.04-0.07 0.08-0.04 0.04-0.08 0.08-0.04 0.04-0.08 0.07-0.05 0.03-0.1 0.06l-0.16 0.08q-0.04 0.04-0.08 0.07-0.04 0.02-0.08 0.05-0.04 0.03-0.09 0.05-0.04 0.02-0.09 0.04-0.02 0.01-0.05 0.02-0.02 0.02-0.05 0.03-0.03 0.01-0.05 0.02-0.03 0.01-0.06 0.01-0.05 0.03-0.11 0.04-0.05 0.02-0.11 0.04-0.06 0.01-0.12 0.03-0.05 0.01-0.11 0.02-0.05 0.02-0.1 0.04-0.04 0.01-0.09 0.03-0.05 0.01-0.09 0.03-0.05 0.01-0.1 0.02h-18.93q-0.35 0.01-0.7 0.07-0.34 0.07-0.67 0.19-0.33 0.12-0.64 0.3-0.3 0.17-0.57 0.4-0.29 0.2-0.53 0.45-0.25 0.25-0.45 0.54-0.21 0.29-0.36 0.6-0.15 0.32-0.24 0.66l-0.33 1.37q-0.21 0.58-0.11 1.18 0.1 0.6 0.47 1.09 0.37 0.48 0.92 0.73 0.56 0.25 1.17 0.2h27.71q0.16 0 0.32 0 0.16-0.01 0.33-0.02 0.16-0.01 0.32-0.03 0.16-0.01 0.32-0.03 0.33-0.04 0.62-0.09 1.13-0.2 1.25-0.25 0.08-0.01 0.16-0.04 0.08-0.02 0.16-0.05 0.08-0.02 0.15-0.05 0.08-0.03 0.16-0.06 0.37-0.17 1.16-0.54 0.23-0.12 0.45-0.24 0.22-0.13 0.43-0.26 0.21-0.14 0.42-0.28 0.21-0.15 0.41-0.31 0.37-0.29 0.75-0.62 0.14-0.12 0.28-0.25 0.13-0.13 0.26-0.26 0.13-0.14 0.26-0.28 0.12-0.14 0.24-0.29 0.04-0.05 0.08-0.09 0.05-0.05 0.09-0.09 0.04-0.05 0.08-0.1 0.04-0.05 0.08-0.1 0.09-0.09 0.17-0.19 0.08-0.1 0.16-0.21 0.08-0.1 0.15-0.21 0.07-0.11 0.14-0.22 0.25-0.37 0.5-0.83 0.08-0.12 0.15-0.24 0.07-0.13 0.14-0.25 0.07-0.13 0.13-0.25 0.06-0.13 0.12-0.26 0.13-0.25 0.3-0.62 0.01-0.05 0.03-0.1 0.02-0.04 0.03-0.09 0.02-0.05 0.03-0.09 0.02-0.05 0.03-0.1 0.02-0.09 0.05-0.18 0.02-0.09 0.05-0.18 0.04-0.09 0.07-0.17 0.04-0.09 0.08-0.18 0.01-0.04 0.03-0.09 0.01-0.05 0.02-0.09 0.02-0.05 0.04-0.1 0.02-0.04 0.03-0.09 0.13-0.37 0.21-0.71l3.83-14.35q0.12-0.5 0.21-1 0.01-0.06 0.02-0.12 0-0.05 0.01-0.11 0-0.06 0.01-0.11 0-0.06 0-0.12 0.02-0.1 0.03-0.21 0.02-0.1 0.03-0.2 0.01-0.11 0.02-0.21 0-0.11 0-0.21v-0.41q0-0.1 0-0.19 0-0.09-0.01-0.19 0-0.09-0.01-0.18-0.01-0.1-0.02-0.19-0.02-0.09-0.04-0.17-0.03-0.08-0.05-0.17-0.03-0.08-0.06-0.16-0.03-0.09-0.06-0.17 0 0.09-0.12-0.29-0.29-0.75-0.25-0.62-0.03-0.04-0.05-0.07-0.02-0.04-0.04-0.07-0.02-0.04-0.04-0.08-0.02-0.04-0.04-0.07l-0.17-0.25q-0.05-0.08-0.1-0.16-0.06-0.08-0.12-0.15-0.07-0.08-0.13-0.14-0.07-0.07-0.15-0.14l-0.33-0.25q-0.08-0.06-0.17-0.13-0.09-0.06-0.18-0.12-0.08-0.07-0.17-0.13-0.09-0.06-0.18-0.12-0.34-0.2-0.71-0.41-0.21-0.08-0.37-0.17-0.1-0.03-0.21-0.06-0.1-0.03-0.2-0.06-0.11-0.02-0.21-0.05-0.11-0.02-0.21-0.04-0.05-0.02-0.09-0.04-0.05-0.02-0.1-0.03-0.04-0.02-0.09-0.03-0.05-0.01-0.1-0.02-0.46-0.13-0.91-0.21-0.42-0.04-0.92-0.08-0.45-0.04-0.83-0.04h-14.4q-0.04 0-0.09-0.01-0.04 0-0.08-0.01-0.04-0.01-0.08-0.03-0.04-0.01-0.08-0.04-0.03 0-0.06 0-0.03-0.01-0.05-0.02-0.03-0.01-0.06-0.02-0.02-0.02-0.04-0.04-0.05-0.02-0.09-0.04-0.04-0.03-0.08-0.05-0.05-0.03-0.09-0.06-0.04-0.03-0.07-0.06-0.02-0.02-0.03-0.04-0.01-0.02-0.02-0.04-0.01-0.02-0.02-0.04-0.01-0.02-0.02-0.04-0.08-0.09-0.12-0.13-0.01-0.04-0.03-0.08-0.02-0.04-0.04-0.07-0.02-0.04-0.05-0.07-0.02-0.04-0.05-0.07-0.01-0.01-0.02-0.03-0.01-0.01-0.01-0.03-0.01-0.01-0.01-0.03 0-0.02 0-0.03-0.02-0.04-0.03-0.07-0.02-0.04-0.03-0.08-0.01-0.03-0.01-0.07-0.01-0.04-0.01-0.08v-0.2q0-0.02 0-0.04 0.01-0.01 0.01-0.03 0.01-0.01 0.01-0.03 0.01-0.01 0.02-0.03l0.17-0.58q0.16-0.71 0.33-1.29 0.5-2 0.46-1.87 0-0.02 0.01-0.04 0.01-0.01 0.02-0.03 0.01-0.01 0.02-0.03 0.02-0.01 0.03-0.03 0.01-0.02 0.03-0.04 0.01-0.03 0.02-0.05 0.02-0.02 0.04-0.04 0.02-0.02 0.03-0.03 0.03-0.04 0.06-0.07 0.03-0.04 0.06-0.07 0.03-0.03 0.06-0.06 0.04-0.03 0.07-0.05 0.02-0.02 0.03-0.03 0.02-0.01 0.03-0.02 0.02-0.01 0.03-0.02 0.02-0.01 0.04-0.02l0.12-0.12q0.03-0.03 0.07-0.06 0.03-0.03 0.07-0.06 0.04-0.02 0.08-0.05 0.03-0.02 0.08-0.04 0.01-0.01 0.03-0.03 0.02-0.01 0.04-0.02 0.02-0.01 0.05-0.02 0.02-0.01 0.04-0.01 0.02-0.02 0.05-0.04 0.02-0.02 0.05-0.04 0.02-0.01 0.05-0.03 0.03-0.01 0.06-0.02 0.37-0.12 0.29-0.12 0.02 0 0.04-0.01 0.02 0 0.05 0 0.02-0.01 0.04-0.02 0.02 0 0.04-0.01h18.89q0.7-0.04 1.37-0.28 0.66-0.24 1.23-0.67 0.56-0.43 0.97-1 0.41-0.58 0.63-1.25z"/>
		<path id="CB" fill-rule="evenodd" class="s1" d="m-0.16 46.86h77.02v59.67h-77.02zm63.45 10.44q0.1-0.29 0.13-0.59 0.02-0.3-0.03-0.6-0.04-0.3-0.17-0.58-0.12-0.28-0.3-0.52-0.19-0.23-0.42-0.41-0.24-0.18-0.51-0.3-0.27-0.12-0.56-0.17-0.3-0.05-0.59-0.04h-24.22q-0.14 0.01-0.28 0.01-0.14 0.01-0.28 0.02-0.14 0.01-0.28 0.02-0.14 0.02-0.28 0.04-0.58 0.12-1.12 0.25-0.51 0.12-1.09 0.33-0.54 0.25-1.04 0.5-0.41 0.21-0.83 0.46l-0.42 0.25q-0.1 0.07-0.2 0.14-0.1 0.07-0.19 0.15-0.1 0.08-0.18 0.16-0.09 0.08-0.18 0.17-0.04 0.04-0.09 0.08-0.04 0.04-0.09 0.08-0.04 0.04-0.09 0.07-0.05 0.03-0.1 0.06-0.05 0.04-0.8 0.67-0.37 0.37-0.83 0.87-0.1 0.11-0.19 0.22-0.1 0.12-0.19 0.23-0.1 0.11-0.19 0.23-0.09 0.12-0.18 0.24-0.2 0.33-0.7 1-0.21 0.29-0.38 0.54-0.21 0.33-0.58 1.08-0.02 0.07-0.05 0.13-0.03 0.07-0.06 0.13-0.03 0.06-0.07 0.12-0.03 0.06-0.07 0.12-0.29 0.54-0.5 1-0.17 0.46-0.38 1.04-0.05 0.14-0.09 0.29-0.05 0.14-0.09 0.29-0.04 0.14-0.08 0.29-0.04 0.15-0.07 0.3l-6.4 24.21q-0.05 0.14-0.09 0.27-0.05 0.14-0.08 0.28-0.04 0.14-0.07 0.28-0.03 0.15-0.05 0.29-0.09 0.54-0.17 1.08-0.02 0.12-0.03 0.25-0.02 0.12-0.03 0.25-0.01 0.12-0.01 0.25-0.01 0.13-0.01 0.25v0.5q-0.04 0.71-0.04 0.96 0.01 0.07 0.02 0.13 0 0.07 0.01 0.14 0.01 0.07 0.01 0.13 0 0.07 0 0.14 0.08 0.46 0.21 0.91 0.16 0.54 0.25 0.92 0.08 0.17 0.16 0.37 0.17 0.42 0.34 0.79 0.03 0.05 0.06 0.1 0.04 0.04 0.07 0.09 0.03 0.04 0.06 0.09 0.03 0.05 0.06 0.1 0.03 0.05 0.06 0.09 0.03 0.05 0.06 0.1 0.03 0.05 0.06 0.09 0.03 0.05 0.07 0.09 0.07 0.09 0.14 0.17 0.08 0.08 0.16 0.15 0.08 0.08 0.16 0.16 0.08 0.07 0.16 0.15 0.04 0.04 0.07 0.08 0.04 0.04 0.08 0.08 0.05 0.03 0.09 0.07 0.05 0.03 0.09 0.06 0.09 0.06 0.18 0.12 0.09 0.07 0.19 0.12 0.09 0.06 0.19 0.11 0.09 0.06 0.19 0.1 0.46 0.21 0.96 0.42 0.05 0.03 0.11 0.06 0.06 0.03 0.11 0.06 0.06 0.02 0.12 0.05 0.06 0.02 0.12 0.04 0.12 0.03 0.23 0.06 0.12 0.03 0.24 0.06 0.12 0.02 0.24 0.05 0.12 0.02 0.24 0.04 0.07 0.01 0.14 0.01 0.07 0.01 0.13 0.02 0.07 0 0.14 0.01 0.07 0 0.14 0 0.54 0.04 1.08 0.04h24.25q0.71-0.03 1.38-0.27 0.66-0.24 1.23-0.67 0.56-0.43 0.97-1.01 0.41-0.58 0.62-1.25l0.38-1.37q0.09-0.29 0.11-0.59 0.02-0.3-0.03-0.6-0.05-0.3-0.16-0.58-0.12-0.28-0.3-0.52-0.18-0.23-0.42-0.41-0.23-0.18-0.5-0.3-0.28-0.12-0.57-0.17-0.29-0.06-0.59-0.04h-15.02q-0.05 0-0.1 0-0.05 0-0.1-0.01-0.06 0-0.11-0.01-0.05-0.01-0.1-0.02-0.03 0-0.05 0-0.03 0-0.06-0.01-0.02 0-0.05-0.01-0.02-0.01-0.05-0.02-0.05-0.02-0.1-0.04-0.05-0.03-0.09-0.05-0.05-0.03-0.1-0.06-0.04-0.03-0.08-0.06-0.02-0.02-0.04-0.03-0.02-0.02-0.04-0.04-0.02-0.01-0.05-0.03-0.02-0.01-0.04-0.02-0.02-0.03-0.05-0.05-0.02-0.02-0.05-0.04-0.03-0.02-0.05-0.04-0.03-0.02-0.06-0.04-0.04-0.04-0.09-0.07-0.04-0.04-0.09-0.09-0.04-0.04-0.08-0.08-0.04-0.05-0.07-0.09-0.02-0.02-0.03-0.04-0.02-0.02-0.04-0.04-0.01-0.02-0.03-0.05-0.01-0.02-0.03-0.04 0-0.03-0.01-0.05-0.01-0.03-0.02-0.05-0.01-0.03-0.03-0.06-0.01-0.02-0.02-0.05-0.03-0.07-0.05-0.15-0.02-0.07-0.04-0.15-0.02-0.08-0.02-0.16-0.01-0.08-0.01-0.16 0-0.05 0-0.1 0.01-0.04 0.02-0.09 0.01-0.05 0.03-0.09 0.01-0.05 0.03-0.09l6.32-23.64q1.05-3.74 0.92-3.41 0.01-0.03 0.02-0.05 0.01-0.03 0.02-0.05 0.02-0.03 0.02-0.06 0.01-0.02 0.02-0.05 0.02-0.02 0.04-0.05 0.01-0.03 0.03-0.05 0.01-0.03 0.03-0.05 0.01-0.03 0.03-0.06 0.05-0.08 0.11-0.16 0.05-0.09 0.12-0.17 0.06-0.07 0.13-0.15 0.07-0.07 0.14-0.14 0.07-0.08 0.15-0.15 0.08-0.06 0.16-0.13 0.08-0.06 0.17-0.12 0.09-0.05 0.18-0.1 0.03-0.02 0.05-0.05 0.03-0.02 0.05-0.04 0.03-0.02 0.06-0.04 0.02-0.02 0.05-0.04 0.07-0.04 0.13-0.08 0.07-0.04 0.14-0.08 0.06-0.03 0.13-0.07 0.07-0.03 0.14-0.06 0.1-0.05 0.2-0.09 0.1-0.03 0.21-0.06 0.1-0.03 0.21-0.04 0.11-0.02 0.21-0.02h14.61q0.35 0 0.69-0.06 0.35-0.06 0.68-0.18 0.33-0.12 0.63-0.29 0.31-0.17 0.58-0.38 0.29-0.21 0.54-0.46 0.25-0.26 0.45-0.55 0.2-0.29 0.35-0.62 0.15-0.32 0.24-0.66zm12.4-10.44h77.02v59.66h-77.02c0 0 0-59.66 0-59.66zm69.2 14.23q0-0.1 0.01-0.2 0.01-0.1 0.02-0.2 0.01-0.1 0.02-0.2 0.01-0.1 0.03-0.19 0-0.05 0-0.1 0-0.05-0.01-0.09 0-0.05-0.01-0.1-0.01-0.04-0.02-0.09 0-0.1-0.01-0.2 0-0.1-0.01-0.2-0.01-0.1-0.03-0.19-0.01-0.1-0.03-0.2-0.09-0.33-0.21-0.71-0.01-0.05-0.02-0.09-0.02-0.05-0.03-0.1-0.02-0.05-0.04-0.09-0.02-0.05-0.04-0.09-0.04-0.08-0.08-0.17-0.04-0.08-0.07-0.16-0.04-0.08-0.07-0.17-0.04-0.08-0.07-0.17-0.02-0.04-0.05-0.08-0.02-0.05-0.05-0.09-0.02-0.04-0.05-0.08-0.03-0.04-0.06-0.08-0.05-0.08-0.1-0.16-0.06-0.08-0.11-0.16-0.06-0.08-0.12-0.16-0.06-0.07-0.12-0.14-0.3-0.25-0.63-0.55-0.07-0.07-0.14-0.13-0.08-0.07-0.16-0.13-0.08-0.07-0.16-0.12-0.08-0.06-0.16-0.12-0.1-0.04-0.2-0.09-0.09-0.04-0.19-0.08-0.1-0.05-0.2-0.08-0.1-0.04-0.2-0.08-0.25-0.08-0.46-0.16-0.17-0.05-0.87-0.21-0.06-0.02-0.11-0.04-0.05-0.02-0.1-0.03-0.05-0.02-0.1-0.03-0.06-0.02-0.11-0.03-0.05-0.02-0.1-0.04-0.05-0.01-0.11-0.03-0.05-0.02-0.1-0.03-0.05-0.01-0.11-0.02-0.11-0.03-0.22-0.04-0.12-0.02-0.23-0.03-0.12-0.01-0.23-0.02-0.12 0-0.23 0-0.06 0-0.12 0-0.05 0-0.11-0.01-0.06 0-0.12-0.01-0.05-0.01-0.11-0.02h-32.83q-0.35 0.01-0.7 0.07-0.35 0.06-0.69 0.18-0.33 0.11-0.64 0.28-0.31 0.17-0.59 0.39-0.29 0.21-0.53 0.47-0.25 0.25-0.45 0.54-0.2 0.3-0.35 0.62-0.15 0.32-0.25 0.66l-10.7 40.32q-0.2 0.57-0.1 1.18 0.09 0.6 0.46 1.08 0.38 0.49 0.93 0.74 0.56 0.24 1.17 0.2h32.83q0.06-0.01 0.11-0.02 0.06-0.01 0.12-0.01 0.05-0.01 0.11-0.01 0.06 0 0.12 0 0.06-0.02 0.12-0.03 0.06 0 0.12-0.01 0.07-0.01 0.13-0.01 0.06 0 0.13 0.01 0.05-0.01 0.11-0.02 0.06-0.01 0.11-0.01 0.06-0.01 0.12-0.01 0.06 0 0.11-0.01l0.5-0.08q0.07-0.01 0.13-0.02 0.06-0.02 0.13-0.03 0.06-0.02 0.12-0.04 0.06-0.01 0.12-0.03 0.71-0.17 0.92-0.21 0.05-0.01 0.09-0.03 0.05-0.01 0.1-0.03 0.04-0.01 0.09-0.03 0.05-0.02 0.09-0.04l0.42-0.16q0.12-0.04 0.41-0.13l0.38-0.12q0.04-0.02 0.09-0.03 0.04-0.02 0.08-0.04 0.05-0.02 0.09-0.05 0.04-0.02 0.07-0.05l0.79-0.37q0.11-0.06 0.21-0.12 0.11-0.06 0.21-0.13 0.1-0.07 0.19-0.14 0.09-0.07 0.18-0.15 0.38-0.29 0.79-0.59 0.11-0.07 0.2-0.14 0.1-0.07 0.19-0.15 0.1-0.08 0.19-0.16 0.09-0.08 0.17-0.17 0.34-0.33 0.63-0.67 0.33-0.41 0.62-0.83 0.09-0.11 0.17-0.23 0.09-0.11 0.17-0.23 0.07-0.12 0.15-0.25 0.07-0.12 0.14-0.25 0.16-0.41 0.37-1 0.21-0.54 0.37-1.12l2.83-10.61q0.04-0.1 0.06-0.2 0.02-0.11 0.04-0.21 0.02-0.11 0.02-0.21 0.01-0.11 0.01-0.21v-0.79q0-0.09-0.01-0.18-0.02-0.09-0.04-0.18-0.02-0.09-0.05-0.18-0.03-0.08-0.07-0.17-0.08-0.16-0.16-0.33-0.04-0.06-0.08-0.12-0.04-0.06-0.08-0.12-0.04-0.05-0.08-0.11-0.05-0.05-0.1-0.11-0.02-0.01-0.04-0.03-0.02-0.02-0.04-0.04-0.01-0.02-0.02-0.04-0.02-0.03-0.02-0.05l-0.17-0.17q-0.04-0.04-0.08-0.07-0.04-0.04-0.08-0.08-0.04-0.04-0.08-0.07-0.05-0.04-0.09-0.07-0.03-0.01-0.06-0.02-0.03-0.01-0.05-0.03-0.03-0.02-0.05-0.03-0.03-0.02-0.05-0.04-0.04-0.04-0.09-0.07-0.05-0.03-0.09-0.06-0.05-0.04-0.1-0.07-0.05-0.03-0.09-0.05-0.42-0.25-0.96-0.55-0.14-0.06-0.29-0.11-0.14-0.05-0.28-0.1-0.15-0.05-0.3-0.09-0.15-0.04-0.3-0.07-0.37-0.08-0.79-0.21-0.05-0.01-0.11-0.02-0.06-0.02-0.12-0.03-0.05-0.02-0.11-0.04-0.06-0.01-0.11-0.03-0.11-0.04-0.22-0.07-0.11-0.03-0.22-0.05-0.11-0.03-0.22-0.05-0.11-0.02-0.22-0.04l-0.41-0.08q-0.21-0.04-0.46-0.09-0.38-0.08-0.04-0.08 0.05 0 0.1 0 0.05-0.01 0.11-0.01 0.05-0.01 0.1-0.01 0.05-0.01 0.1-0.02h0.92q0.12 0 0.24-0.01 0.12 0 0.24-0.01 0.12-0.01 0.24-0.03 0.12-0.01 0.23-0.03 0.5-0.09 1.05-0.21 0.08-0.01 0.15-0.02 0.08-0.01 0.16-0.03 0.08-0.01 0.16-0.03 0.07-0.02 0.15-0.05l0.33-0.08q0.5-0.17 0.58-0.21l0.34-0.08q0.33-0.13 0.54-0.21 0.09-0.04 0.18-0.08 0.09-0.04 0.18-0.09 0.09-0.04 0.18-0.1 0.08-0.05 0.17-0.1 0.04-0.03 0.08-0.05 0.05-0.02 0.09-0.05 0.04-0.03 0.08-0.05 0.04-0.03 0.08-0.06 0.08-0.05 0.16-0.1 0.08-0.05 0.16-0.1 0.08-0.05 0.15-0.11 0.08-0.05 0.15-0.11 0.05-0.02 0.09-0.04 0.04-0.03 0.08-0.05 0.05-0.03 0.09-0.06 0.04-0.03 0.08-0.06 0.03-0.03 0.07-0.06 0.03-0.03 0.07-0.07 0.03-0.03 0.07-0.06 0.04-0.03 0.08-0.06 0.12-0.16 0.54-0.62 0.03-0.03 0.06-0.07 0.04-0.03 0.07-0.07 0.03-0.04 0.06-0.07 0.03-0.04 0.06-0.08 0.06-0.09 0.13-0.17 0.06-0.09 0.13-0.18 0.06-0.09 0.12-0.18 0.06-0.09 0.12-0.18 0.05-0.09 0.1-0.18 0.06-0.09 0.1-0.18 0.05-0.1 0.09-0.19 0.04-0.1 0.08-0.2 0.02-0.05 0.04-0.1 0.02-0.05 0.03-0.1 0.02-0.05 0.03-0.11 0.02-0.05 0.03-0.1 0.54-2.12 0.95-3.66l0.63-2.17q0.87-3.2 0.96-3.62 0-0.05 0-0.1 0-0.06 0.01-0.11 0-0.05 0.01-0.1 0.01-0.05 0.02-0.1 0.01-0.06 0.02-0.11 0-0.05 0.01-0.1 0-0.05 0.01-0.11 0-0.05 0-0.1zm-16.98 1.74q0.04 0.09 0.12 0.29 0.02 0.04 0.04 0.08 0.02 0.04 0.03 0.08 0.01 0.05 0.01 0.09 0.01 0.04 0 0.09v0.16q0 0.13-0.87 3.33l-1.08 4.08q-0.03 0.1-0.07 0.19-0.04 0.1-0.1 0.19-0.05 0.09-0.11 0.17-0.06 0.08-0.14 0.16l-0.33 0.33-0.33 0.33q-0.04 0.04-0.07 0.07-0.04 0.03-0.07 0.06-0.04 0.03-0.08 0.06-0.03 0.03-0.07 0.06-0.03 0.02-0.06 0.04-0.03 0.02-0.06 0.03-0.04 0.02-0.07 0.03-0.03 0.02-0.06 0.03-0.09 0.04-0.38 0.21-0.02 0-0.04 0-0.02 0-0.04 0.01-0.02 0-0.04 0.01-0.02 0.01-0.04 0.02-0.06 0.01-0.11 0.02-0.05 0-0.1 0.01-0.05 0-0.11 0.01-0.05 0-0.1 0h-6.98q-0.31 0.02-0.6-0.04-0.3-0.06-0.58-0.18-0.28-0.13-0.52-0.31-0.24-0.19-0.43-0.43-0.17-0.24-0.29-0.51-0.11-0.27-0.16-0.57-0.05-0.29-0.03-0.58 0.02-0.3 0.11-0.58l1.25-4.66q0.1-0.34 0.25-0.66 0.15-0.31 0.35-0.6 0.2-0.29 0.45-0.54 0.25-0.25 0.53-0.45 0.27-0.23 0.57-0.4 0.31-0.18 0.64-0.3 0.33-0.13 0.67-0.19 0.35-0.06 0.7-0.07h7.11q0.04 0 0.08 0.01 0.04 0.01 0.08 0.02 0.03 0.01 0.07 0.02 0.03 0.02 0.07 0.03 0.03 0.02 0.07 0.03 0.04 0.02 0.07 0.03 0.04 0.02 0.08 0.04 0.03 0.01 0.07 0.03 0.03 0.01 0.07 0.03 0.03 0.02 0.06 0.04 0.03 0.02 0.06 0.04 0.03 0.03 0.06 0.06 0.01 0.02 0.02 0.03 0.01 0.02 0.03 0.04 0.01 0.02 0.03 0.03 0.02 0.01 0.04 0.02 0.21 0.17 0.25 0.21 0.01 0.02 0.02 0.03 0.01 0.02 0.02 0.04 0.01 0.01 0.02 0.03 0.01 0.01 0.02 0.02 0.01 0 0 0zm-4.99 18.73q0 0.02 0.01 0.03 0.01 0.02 0.02 0.03 0.01 0.02 0.03 0.03 0.01 0.02 0.02 0.03 0.02 0.04 0.04 0.07 0.01 0.04 0.02 0.07 0.01 0.04 0.02 0.08 0 0.04 0 0.07v0.34q0 0.16-0.87 3.37l-1.41 5.28q-0.09 0.21-0.17 0.42l-0.08 0.25q-0.03 0.05-0.06 0.11-0.03 0.05-0.06 0.1-0.03 0.05-0.06 0.1-0.04 0.05-0.07 0.1-0.01 0.03-0.03 0.05-0.01 0.02-0.03 0.04-0.01 0.02-0.03 0.04-0.02 0.02-0.04 0.04-0.04 0.05-0.09 0.11-0.04 0.05-0.09 0.1-0.05 0.06-0.09 0.11-0.05 0.05-0.1 0.1l-0.34 0.29q-0.01 0.02-0.03 0.05-0.02 0.02-0.04 0.04-0.02 0.02-0.04 0.04-0.03 0.02-0.05 0.03-0.04 0.03-0.09 0.05-0.05 0.03-0.09 0.05-0.05 0.02-0.1 0.04-0.05 0.01-0.09 0.03l-0.17 0.08q-0.05 0.01-0.09 0.02-0.05 0.01-0.1 0.01-0.04 0.01-0.09 0.01-0.05 0-0.1 0h-7.28q-0.3 0.02-0.6-0.03-0.3-0.05-0.57-0.17-0.28-0.12-0.52-0.3-0.24-0.18-0.44-0.41-0.17-0.25-0.28-0.53-0.12-0.28-0.16-0.57-0.04-0.3-0.02-0.6 0.03-0.3 0.13-0.59l1.67-6.28q0.1-0.34 0.25-0.65 0.16-0.31 0.36-0.6 0.2-0.29 0.44-0.54 0.25-0.25 0.53-0.46 0.27-0.22 0.58-0.39 0.3-0.17 0.63-0.28 0.33-0.12 0.67-0.18 0.35-0.06 0.7-0.06h7.11q0.04 0 0.08 0 0.03 0 0.07 0.01 0.04 0 0.07 0.01 0.04 0.01 0.07 0.02 0.02 0.01 0.04 0.02 0.02 0 0.04 0.01 0.03 0 0.05 0.01 0.02 0 0.04 0 0.03 0.02 0.06 0.04 0.04 0.02 0.07 0.04 0.03 0.02 0.06 0.04 0.03 0.02 0.06 0.05 0.02 0.01 0.04 0.02 0.03 0.02 0.05 0.03 0.02 0.02 0.04 0.04 0.02 0.01 0.04 0.03l0.12 0.13q0.04 0.01 0.07 0.04 0.04 0.02 0.07 0.04 0.03 0.03 0.06 0.06 0.03 0.03 0.05 0.06 0.01 0.02 0.02 0.04 0.01 0.01 0.02 0.03 0.01 0.02 0.02 0.03 0.01 0.02 0.03 0.03z"/>
		<path id="Shape 1" fill-rule="evenodd" class="s2" d="m78.37 46.86l-0.26 59.65h-4l0.26-59.65z"/>
		<path id="Shape 1 copy" fill-rule="evenodd" class="s0" d="m262.37 46.86l-0.26 59.65h-4l0.26-59.65z"/>
		<path id="Shape 1 copy 2" fill-rule="evenodd" class="s0" d="m338.37 46.86l-0.26 59.65h-4l0.26-59.65z"/>
		<path id="Shape 1 copy 3" fill-rule="evenodd" class="s0" d="m414.37 46.86l-0.26 59.65h-4l0.26-59.65z"/>
		<path id="Shape 1 copy 4" fill-rule="evenodd" class="s0" d="m490.37 46.86l-0.26 59.65h-4l0.26-59.65z"/>
		<path id="Shape 1 copy 5" fill-rule="evenodd" class="s0" d="m566.37 46.86l-0.26 59.65h-4l0.26-59.65z"/>
		<path id="Shape 1 copy 6" fill-rule="evenodd" class="s0" d="m642.37 46.86l-0.26 59.65h-4l0.26-59.65z"/>
	</g>
</svg>